<svg width="19" height="17" viewBox="0 0 19 17" fill="none" xmlns="http://www.w3.org/2000/svg">
<path d="M19 8.55133C18.9994 3.82854 14.7467 0 9.5 0C4.25333 0 0 3.82911 0 8.55247C0 12.8042 3.44625 16.331 7.96059 16.9932L8.01507 17V11.0242H5.60269V8.55133H8.01507V6.66814C8.00303 6.5729 7.9967 6.46226 7.9967 6.35048C7.9967 4.68344 9.4981 3.33179 11.3498 3.33179C11.4392 3.33179 11.5278 3.33521 11.6159 3.34091L11.6045 3.34034C12.3641 3.35004 13.0989 3.41049 13.8161 3.51828L13.7312 3.50745V5.61192H12.5326C12.4781 5.60507 12.4154 5.60108 12.352 5.60108C11.5937 5.60108 10.9786 6.15429 10.9786 6.83753C10.9786 6.87631 10.9805 6.91452 10.9843 6.95273L10.9837 6.9476V8.55133H13.6184L13.1971 11.0242H10.9837V17C15.5531 16.3304 18.9994 12.803 19 8.55133Z" fill="black"/>
</svg>
