<svg width="19" height="17" viewBox="0 0 19 17" fill="none" xmlns="http://www.w3.org/2000/svg">
<g clip-path="url(#clip0_611_200)">
<path d="M8.23462 10.1369L11.3444 8.50335L8.23462 6.86975V10.1369Z" fill="black"/>
<path d="M9.5 0C4.25273 0 0 3.80508 0 8.5C0 13.1949 4.25273 17 9.5 17C14.7473 17 19 13.1949 19 8.5C19 3.80508 14.7473 0 9.5 0ZM14.25 10.0207C14.25 11.485 12.6135 11.485 12.6135 11.485H6.38652C4.75 11.485 4.75 10.0207 4.75 10.0207V6.98262C4.75 5.51836 6.38652 5.51836 6.38652 5.51836H12.6135C14.25 5.51836 14.25 6.98262 14.25 6.98262V10.0207Z" fill="black"/>
</g>
<defs>
<clipPath id="clip0_611_200">
<rect width="19" height="17" fill="white"/>
</clipPath>
</defs>
</svg>
