<svg width="60" height="60" viewBox="0 0 60 60" fill="none" xmlns="http://www.w3.org/2000/svg">
<g clip-path="url(#clip0_334_1435)">
<path d="M56 50.0001H4C1.79167 50.0001 0 48.2084 0 46.0001V29.1734H2.88167L3.53167 27.6001H4.98667L5.635 29.1668H11.305V27.9751L11.8117 29.1751H14.755L15.2617 27.9551V29.1718H29.35V26.5984H29.6167C29.8067 26.6051 29.8617 26.6218 29.8617 26.9384V29.1751H37.15V28.5768C37.895 28.9551 38.7733 29.1768 39.705 29.1768C39.7583 29.1768 39.81 29.1768 39.8633 29.1751H39.855H42.9217L43.5783 27.6084H45.0333L45.675 29.1751H51.585V27.6851L52.4783 29.1751H57.205V19.3351H52.5267V20.4968L51.8717 19.3351H47.0617V20.4968L46.46 19.3351H39.965C39.8817 19.3301 39.7817 19.3284 39.6833 19.3284C38.7617 19.3284 37.89 19.5418 37.1167 19.9234L37.1517 19.9084V19.3351H32.6717V19.9084C32.2117 19.5451 31.625 19.3268 30.9867 19.3268C30.9083 19.3268 30.8317 19.3301 30.7567 19.3368H30.7667H14.395L13.2967 21.8784L12.1683 19.3368H7.01167V20.4984L6.44333 19.3368H2.04333L0.005 24.0034V14.0034C0.005 11.7951 1.79667 10.0034 4.005 10.0034H56.005C58.2133 10.0034 60.005 11.7951 60.005 14.0034V31.4701H56.8833C56.8333 31.4668 56.7733 31.4668 56.715 31.4668C55.9917 31.4668 55.32 31.6834 54.76 32.0551L54.7733 32.0468V31.4701H50.1567C50.1067 31.4668 50.0467 31.4651 49.9867 31.4651C49.2967 31.4651 48.655 31.6818 48.1317 32.0518L48.1417 32.0451V31.4684H39.8983V32.0451C39.2617 31.6818 38.4983 31.4684 37.6867 31.4684C37.665 31.4684 37.6433 31.4684 37.6217 31.4684H37.625H32.1867V32.0451C31.61 31.6734 30.9067 31.4534 30.1517 31.4534C30.0317 31.4534 29.9117 31.4584 29.7933 31.4701L29.8083 31.4684H23.7233L22.33 32.9751L21.0267 31.4684H11.9367V41.3151H20.8567L22.2917 39.7851L23.6433 41.3151H29.1417V39.0101H29.9083C29.97 39.0134 30.0433 39.0134 30.1167 39.0134C30.805 39.0134 31.4633 38.8834 32.0683 38.6484L32.0317 38.6618V41.3184H36.565V38.7534H36.7833C37.06 38.7534 37.0883 38.7634 37.0883 39.0434V41.3201H50.865C50.915 41.3217 50.975 41.3234 51.0333 41.3234C51.8233 41.3234 52.56 41.0868 53.1733 40.6817L53.1583 40.6901V41.3201H57.5283C57.59 41.3217 57.6633 41.3234 57.7367 41.3234C58.555 41.3234 59.3333 41.1551 60.04 40.8501L60.0017 40.8651V46.0017C60.0017 48.2101 58.21 50.0017 56.0017 50.0017L56 50.0001ZM35.175 39.9351H33.4783V32.8768H37.3717C37.4833 32.8668 37.6117 32.8601 37.7433 32.8601C38.3433 32.8601 38.9133 32.9884 39.4267 33.2201L39.4 33.2101C39.9217 33.4967 40.27 34.0434 40.27 34.6701C40.27 34.7084 40.2683 34.7451 40.2667 34.7818V34.7768C40.2667 34.7951 40.2683 34.8184 40.2683 34.8401C40.2683 35.6501 39.78 36.3468 39.08 36.6501L39.0667 36.6551C39.4017 36.7751 39.6817 36.9801 39.89 37.2451L39.8933 37.2484C40.0767 37.5501 40.1867 37.9167 40.1867 38.3067C40.1867 38.3884 40.1817 38.4667 40.1733 38.5467L40.175 38.5367V39.9334H38.4817V39.0501C38.4983 38.9517 38.5083 38.8368 38.5083 38.7201C38.5083 38.3317 38.3983 37.9684 38.21 37.6601L38.215 37.6684C37.9433 37.4617 37.5983 37.3368 37.225 37.3368C37.1383 37.3368 37.0517 37.3434 36.9683 37.3567L36.9783 37.3551H35.175V39.9334V39.9351ZM35.175 34.3351V35.9201H37.225C37.27 35.9251 37.32 35.9268 37.3733 35.9268C37.6217 35.9268 37.8583 35.8701 38.0683 35.7701L38.0583 35.7751C38.27 35.6368 38.4083 35.4018 38.4083 35.1334C38.4083 35.1201 38.4083 35.1084 38.4067 35.0951C38.4083 35.0818 38.4083 35.0684 38.4083 35.0534C38.4083 34.8001 38.2683 34.5784 38.0617 34.4634L38.0583 34.4618C37.8633 34.3734 37.6367 34.3218 37.3967 34.3218C37.3483 34.3218 37.3 34.3234 37.2517 34.3284H37.2583L35.175 34.3351ZM20.1333 39.9334H13.455V32.8768H20.2383L22.3133 35.1901L24.4583 32.8768H29.8467C31.76 32.8768 32.69 33.6384 32.69 35.2018C32.69 36.7934 31.7283 37.5668 29.7567 37.5668H27.6483V39.9317H24.37L22.2933 37.6001L20.135 39.9334H20.1333ZM25.9683 33.6334L23.3783 36.4168L25.9683 39.2901V33.6334ZM15.1367 37.0584V38.4617H19.2833L21.2 36.3918L19.3567 34.3351H15.135V35.6184H18.8383V37.0567L15.1367 37.0584ZM27.6483 34.3368V36.1334H29.8267C30.4933 36.1334 30.8767 35.7934 30.8767 35.2001C30.8767 34.6334 30.52 34.3351 29.845 34.3351L27.6483 34.3368ZM57.7117 39.9367H54.455V38.4201H57.6983C57.7367 38.4251 57.78 38.4284 57.825 38.4284C58.0333 38.4284 58.2267 38.3601 58.3833 38.2434L58.3817 38.2451C58.5033 38.1318 58.58 37.9701 58.58 37.7901C58.58 37.7884 58.58 37.7867 58.58 37.7851C58.58 37.7784 58.58 37.7701 58.58 37.7634C58.58 37.5851 58.5 37.4268 58.375 37.3201C58.235 37.2184 58.06 37.1584 57.8717 37.1584C57.84 37.1584 57.8083 37.1601 57.7783 37.1634H57.7817L57.47 37.1534C55.9467 37.1134 54.2217 37.0668 54.2217 34.9784C54.2217 33.9618 54.8583 32.8768 56.64 32.8768H60.0017V34.3801H56.9267C56.8883 34.3751 56.845 34.3734 56.8 34.3734C56.5967 34.3734 56.4067 34.4251 56.24 34.5168L56.2467 34.5134C56.0983 34.6118 56 34.7801 56 34.9684C56 34.9851 56 35.0001 56.0017 35.0168V35.0151V35.0334C56.0017 35.2701 56.155 35.4701 56.3683 35.5401L56.3717 35.5417C56.5367 35.5934 56.7267 35.6251 56.9233 35.6251C56.9567 35.6251 56.9917 35.6234 57.025 35.6218H57.02L57.935 35.6451C58.0117 35.6368 58.1017 35.6318 58.1917 35.6318C58.82 35.6318 59.3983 35.8501 59.8533 36.2168L59.8483 36.2134C59.8983 36.2534 59.9417 36.2968 59.98 36.3451L59.9817 36.3468L60.0017 39.0334C59.5167 39.5968 58.8017 39.9517 58.0033 39.9517C57.9 39.9517 57.7983 39.9451 57.7 39.9351L57.7117 39.9367ZM51.13 39.9367H47.8433V38.4201H51.1133C51.15 38.4251 51.1933 38.4284 51.2367 38.4284C51.4483 38.4284 51.645 38.3601 51.805 38.2434L51.8017 38.2451C51.9233 38.1318 51.9983 37.9684 51.9983 37.7901C51.9983 37.7884 51.9983 37.7867 51.9983 37.7851C51.9983 37.7817 51.9983 37.7767 51.9983 37.7734C51.9983 37.5934 51.9183 37.4301 51.7933 37.3201C51.6517 37.2184 51.4733 37.1584 51.2817 37.1584C51.25 37.1584 51.2183 37.1601 51.1883 37.1634H51.1917L50.8817 37.1534C49.3633 37.1134 47.64 37.0668 47.64 34.9784C47.64 33.9618 48.2733 32.8768 50.0517 32.8768H53.4317V34.3801H50.3383C50.3 34.3751 50.2567 34.3734 50.2133 34.3734C50.0117 34.3734 49.8217 34.4251 49.6567 34.5168L49.6633 34.5134C49.5083 34.6218 49.4083 34.7984 49.4083 34.9984C49.4083 35.2451 49.56 35.4568 49.7733 35.5451L49.7767 35.5468C49.9433 35.5984 50.1333 35.6301 50.3317 35.6301C50.3667 35.6301 50.4033 35.6284 50.4383 35.6268H50.4333L51.3417 35.6501C51.4183 35.6418 51.5067 35.6384 51.595 35.6384C52.2283 35.6384 52.8117 35.8568 53.2717 36.2234L53.2667 36.2184C53.5833 36.5684 53.7783 37.0334 53.7783 37.5451C53.7783 37.6034 53.775 37.6634 53.77 37.7201V37.7118C53.775 39.1834 52.8833 39.9334 51.125 39.9334L51.13 39.9367ZM46.8333 39.9367H41.2V32.8751H46.8283V34.3334H42.8833V35.6168H46.7367V37.0551H42.8833V38.4584L46.8333 38.4651V39.9317V39.9367ZM50.1167 27.7934H46.6817L46.025 26.2201H42.5217L41.885 27.7934H39.9117C39.8567 27.7968 39.7917 27.7984 39.7267 27.7984C38.87 27.7984 38.0817 27.5034 37.4583 27.0084L37.4667 27.0134C36.8983 26.3851 36.5517 25.5501 36.5517 24.6318C36.5517 24.5218 36.5567 24.4118 36.5667 24.3051L36.565 24.3184C36.5567 24.2251 36.5517 24.1168 36.5517 24.0068C36.5517 23.0668 36.9017 22.2101 37.4783 21.5568L37.475 21.5601C38.07 21.0401 38.8533 20.7234 39.7117 20.7234C39.8267 20.7234 39.9383 20.7284 40.05 20.7401L40.0367 20.7384H41.67V22.2434H40.07C40.01 22.2351 39.94 22.2301 39.8683 22.2301C39.4433 22.2301 39.0583 22.3934 38.77 22.6618L38.7717 22.6601C38.465 23.0518 38.28 23.5518 38.28 24.0934C38.28 24.1518 38.2817 24.2101 38.2867 24.2668V24.2584C38.28 24.3218 38.2767 24.3968 38.2767 24.4718C38.2767 25.0151 38.455 25.5168 38.755 25.9218L38.75 25.9151C39.0317 26.1451 39.3933 26.2851 39.79 26.2851C39.8383 26.2851 39.885 26.2834 39.9317 26.2784H39.925H40.6817L43.0667 20.7284H45.6L48.455 27.3951V20.7284H51.0233L53.9867 25.6418V20.7284H55.72V27.7817H53.3133L50.1133 22.4851V27.7817L50.1167 27.7934ZM44.285 21.9301L43.1233 24.7434H45.4517L44.285 21.9301ZM27.9533 27.7901H26.2667V20.7334H30.1467C30.2667 20.7201 30.4067 20.7134 30.5483 20.7134C31.1433 20.7134 31.7083 20.8451 32.215 21.0818L32.19 21.0718C32.705 21.3601 33.0467 21.9018 33.0467 22.5234C33.0467 22.5634 33.045 22.6018 33.0433 22.6401V22.6351V22.6868C33.0433 23.4984 32.56 24.1968 31.8667 24.5101L31.8533 24.5151C32.1883 24.6418 32.47 24.8451 32.685 25.1051L32.6883 25.1084C32.8717 25.4084 32.9817 25.7718 32.9817 26.1618C32.9817 26.2467 32.9767 26.3301 32.9667 26.4134L32.9683 26.4034V27.7884H31.2667L31.26 26.8984V26.7651C31.27 26.6901 31.2767 26.6034 31.2767 26.5134C31.2767 26.1468 31.1717 25.8051 30.9883 25.5168L30.9933 25.5251C30.7217 25.3251 30.38 25.2034 30.01 25.2034C29.9233 25.2034 29.8367 25.2101 29.7533 25.2234L29.7633 25.2218H27.955V27.7884L27.9533 27.7901ZM27.9533 22.2018V23.7684H30C30.0483 23.7734 30.105 23.7768 30.1617 23.7768C30.4067 23.7768 30.6367 23.7201 30.8417 23.6184L30.8333 23.6218C31.045 23.4918 31.1833 23.2618 31.1833 23.0001C31.1833 22.9851 31.1833 22.9684 31.1817 22.9534C31.1833 22.9401 31.1833 22.9268 31.1833 22.9118C31.1833 22.6601 31.04 22.4418 30.83 22.3334L30.8267 22.3318C30.6267 22.2451 30.395 22.1934 30.15 22.1934C30.1067 22.1934 30.0633 22.1951 30.0217 22.1984H30.0267L27.9533 22.2018ZM10.0933 27.7901H6.66667L6.01833 26.2168H2.505L1.85167 27.7901H0.0183333L3.04 20.7334H5.545L8.41333 27.4118V20.7334H11.165L13.3717 25.5184L15.4 20.7334H18.2083V27.7868H16.475L16.4717 22.2668L14.0267 27.7884H12.5467L10.095 22.2584V27.7884L10.0933 27.7901ZM4.25333 21.9301L3.105 24.7434H5.40833L4.25333 21.9301ZM35.7333 27.7884H34.0133V20.7334H35.735V27.7868L35.7333 27.7884ZM25.09 27.7884H19.4667V20.7334H25.1V22.2001H21.1533V23.4718H25.005V24.9201H21.15V26.3301H25.0967V27.7868L25.09 27.7884Z" fill="black"/>
</g>
<defs>
<clipPath id="clip0_334_1435">
<rect width="60" height="60" fill="white"/>
</clipPath>
</defs>
</svg>
