<svg width="41" height="38" viewBox="0 0 41 38" fill="none" xmlns="http://www.w3.org/2000/svg">
<path d="M3.4165 19.0002C3.4165 13.029 3.4165 10.0435 5.41794 8.18848C7.41939 6.3335 10.6406 6.3335 17.0832 6.3335H23.9165C30.359 6.3335 33.5804 6.3335 35.5817 8.18848C37.5832 10.0435 37.5832 13.029 37.5832 19.0002V22.1668C37.5832 28.1379 37.5832 31.1236 35.5817 32.9785C33.5804 34.8335 30.359 34.8335 23.9165 34.8335H17.0832C10.6406 34.8335 7.41939 34.8335 5.41794 32.9785C3.4165 31.1236 3.4165 28.1379 3.4165 22.1668V19.0002Z" stroke="#1C274C" stroke-width="3.75"/>
<path opacity="0.5" d="M11.9585 6.3335V3.9585" stroke="#1C274C" stroke-width="3.75" stroke-linecap="round"/>
<path opacity="0.5" d="M29.0415 6.3335V3.9585" stroke="#1C274C" stroke-width="3.75" stroke-linecap="round"/>
<path opacity="0.5" d="M3.4165 14.25H37.5832" stroke="#1C274C" stroke-width="3.75" stroke-linecap="round"/>
</svg>
