<svg width="19" height="28" viewBox="0 0 19 28" fill="none" xmlns="http://www.w3.org/2000/svg">
<path fill-rule="evenodd" clip-rule="evenodd" d="M3.0875 11.8809V9.10843C3.0875 4.07799 5.95848 0 9.5 0C13.0415 0 15.9125 4.07799 15.9125 9.10843V11.8809C16.9716 11.9933 17.6612 12.2768 18.1652 12.9929C19 14.1787 19 16.087 19 19.9036C19 23.7203 19 25.6286 18.1652 26.8143C17.3305 28 15.987 28 13.3 28H5.7C3.01299 28 1.66949 28 0.834746 26.8143C0 25.6286 0 23.7203 0 19.9036C0 16.087 0 14.1787 0.834746 12.9929C1.33884 12.2768 2.02849 11.9933 3.0875 11.8809ZM4.5125 9.10843C4.5125 5.19587 6.74548 2.0241 9.5 2.0241C12.2545 2.0241 14.4875 5.19587 14.4875 9.10843V11.8121C14.1236 11.8072 13.7289 11.8072 13.3 11.8072H5.7C5.27107 11.8072 4.87636 11.8072 4.5125 11.8121V9.10843ZM9.5 16.1928C9.89349 16.1928 10.2125 16.6459 10.2125 17.2048V22.6024C10.2125 23.1613 9.89349 23.6145 9.5 23.6145C9.10651 23.6145 8.7875 23.1613 8.7875 22.6024V17.2048C8.7875 16.6459 9.10651 16.1928 9.5 16.1928Z" fill="black"/>
</svg>
