<svg width="18" height="19" viewBox="0 0 18 19" fill="none" xmlns="http://www.w3.org/2000/svg">
<path fill-rule="evenodd" clip-rule="evenodd" d="M0.796127 0C0.356442 0 0 0.3731 0 0.833333C0 1.29357 0.356442 1.66667 0.796127 1.66667H1.76678L4.60436 13.5474C3.76788 13.9363 3.18451 14.8135 3.18451 15.8333C3.18451 17.2141 4.25383 18.3333 5.57289 18.3333C6.89195 18.3333 7.96127 17.2141 7.96127 15.8333C7.96127 15.5412 7.91334 15.2607 7.82537 15H11.2817C11.1937 15.2607 11.1458 15.5412 11.1458 15.8333C11.1458 17.2141 12.2151 18.3333 13.5342 18.3333C14.8533 18.3333 15.9225 17.2141 15.9225 15.8333C15.9225 14.4526 14.8533 13.3333 13.5342 13.3333H6.19449L5.79643 11.6667H13.5342C15.1775 11.6667 16.1629 10.5799 16.7097 9.37992C17.244 8.20725 17.43 6.80577 17.4949 5.7864C17.5852 4.36678 16.4641 3.33333 15.2228 3.33333H3.80611L3.3115 1.26244C3.13429 0.520492 2.49742 0 1.76678 0H0.796127ZM13.5342 10H5.39836L4.20417 5H15.2228C15.6632 5 15.9276 5.33896 15.9061 5.67565C15.8456 6.62683 15.6762 7.7765 15.2726 8.66242C14.8814 9.52092 14.3463 10 13.5342 10ZM13.5342 16.6615C13.0972 16.6615 12.743 16.2908 12.743 15.8333C12.743 15.3759 13.0972 15.0052 13.5342 15.0052C13.9712 15.0052 14.3254 15.3759 14.3254 15.8333C14.3254 16.2908 13.9712 16.6615 13.5342 16.6615ZM4.78167 15.8333C4.78167 16.2908 5.13591 16.6615 5.57289 16.6615C6.00987 16.6615 6.36411 16.2908 6.36411 15.8333C6.36411 15.3759 6.00987 15.0052 5.57289 15.0052C5.13591 15.0052 4.78167 15.3759 4.78167 15.8333Z" fill="#0F0F0F"/>
</svg>
