<svg width="19" height="17" viewBox="0 0 19 17" fill="none" xmlns="http://www.w3.org/2000/svg">
<g clip-path="url(#clip0_611_194)">
<path d="M9.49996 9.99413C10.4203 9.99413 11.1736 9.32343 11.1736 8.49667C11.1736 8.17128 11.0548 7.86913 10.8582 7.62343C10.5539 7.24823 10.0603 6.99921 9.50368 6.99921C8.94704 6.99921 8.45348 7.24491 8.14918 7.62343C7.9525 7.86913 7.83375 8.17128 7.83375 8.49667C7.83004 9.32343 8.57965 9.99413 9.49996 9.99413Z" fill="black"/>
<path d="M13.1516 6.67051V5.41543V5.22949H12.9438L11.541 5.23281L11.5484 6.67383L13.1516 6.67051Z" fill="black"/>
<path d="M12.0977 8.50001C12.0977 9.78165 10.9324 10.8242 9.5 10.8242C8.06758 10.8242 6.90234 9.78165 6.90234 8.50001C6.90234 8.19122 6.97285 7.89572 7.09531 7.62677H5.67773V11.1065C5.67773 11.5547 6.08594 11.9199 6.58691 11.9199H12.4131C12.9141 11.9199 13.3223 11.5547 13.3223 11.1065V7.62677H11.9047C12.0309 7.89572 12.0977 8.19122 12.0977 8.50001Z" fill="black"/>
<path d="M9.5 0C4.25273 0 0 3.80508 0 8.5C0 13.1949 4.25273 17 9.5 17C14.7473 17 19 13.1949 19 8.5C19 3.80508 14.7473 0 9.5 0ZM14.25 7.62676V11.1064C14.25 12.0129 13.4262 12.75 12.4131 12.75H6.58691C5.57383 12.75 4.75 12.0129 4.75 11.1064V7.62676V5.89023C4.75 4.98379 5.57383 4.24668 6.58691 4.24668H12.4131C13.4262 4.24668 14.25 4.98379 14.25 5.89023V7.62676Z" fill="black"/>
</g>
<defs>
<clipPath id="clip0_611_194">
<rect width="19" height="17" fill="white"/>
</clipPath>
</defs>
</svg>
