<svg width="19" height="17" viewBox="0 0 19 17" fill="none" xmlns="http://www.w3.org/2000/svg">
<path d="M9.5 0C4.25274 0 0 3.80508 0 8.5C0 13.1949 4.25274 17 9.5 17C14.7473 17 19 13.1949 19 8.5C19 3.80508 14.7473 0 9.5 0ZM13.2926 7.17852C13.2963 7.25156 13.2963 7.32793 13.2963 7.4043C13.2963 9.71191 11.3332 12.3748 7.74102 12.3748C6.63887 12.3748 5.61094 12.0859 4.75 11.5912C4.90215 11.6078 5.05801 11.6145 5.21758 11.6145C6.13047 11.6145 6.97285 11.3355 7.64082 10.8674C6.78731 10.8541 6.06367 10.3494 5.81875 9.65547C5.9375 9.67539 6.05996 9.68535 6.18613 9.68535C6.36426 9.68535 6.53867 9.66543 6.70195 9.62226C5.80762 9.46289 5.13594 8.75566 5.13594 7.90899V7.88906C5.39941 8.01855 5.7 8.09824 6.01914 8.1082C5.4959 7.79609 5.15078 7.2582 5.15078 6.65391C5.15078 6.33516 5.24727 6.03301 5.41426 5.77402C6.3791 6.8332 7.81524 7.52715 9.43692 7.60019C9.40352 7.47402 9.38496 7.34121 9.38496 7.20176C9.38496 6.23887 10.2607 5.45527 11.3369 5.45527C11.8973 5.45527 12.4057 5.66777 12.7619 6.00644C13.2072 5.92676 13.6229 5.78398 14.0014 5.58145C13.8566 5.98984 13.5449 6.33184 13.1441 6.54766C13.5375 6.50449 13.916 6.41152 14.2648 6.27207C14.0051 6.62402 13.6748 6.92949 13.2926 7.17852Z" fill="black"/>
</svg>
