<svg width="20" height="14" viewBox="0 0 20 14" fill="none" xmlns="http://www.w3.org/2000/svg">
<path d="M19.951 1.89783C19.8679 1.52109 19.6805 1.16502 19.407 0.865662C19.3515 0.802813 19.2934 0.7469 19.2299 0.690182C18.7434 0.251571 18.0667 0 17.3732 0H2.62672C1.92551 0 1.26602 0.24523 0.769727 0.690427C0.706914 0.74662 0.648672 0.803093 0.591016 0.867939C0.31875 1.16603 0.132148 1.52162 0.0510156 1.89889C0.0171094 2.04704 0 2.20055 0 2.35585V11.6444C0 11.9675 0.0732031 12.2822 0.21832 12.5813C0.343906 12.847 0.534453 13.0988 0.76957 13.3096C0.828789 13.3624 0.887617 13.4112 0.95043 13.4587C1.42051 13.8079 2.01574 14 2.62672 14H17.3732C17.9881 14 18.5828 13.8071 19.0516 13.4549C19.1143 13.4094 19.1723 13.3617 19.2304 13.3096C19.4577 13.106 19.6383 12.872 19.7682 12.614L19.7853 12.5772C19.9277 12.2838 20 11.9701 20 11.6444V2.35585C20 2.20258 19.9835 2.04805 19.951 1.89783ZM1.36027 1.50347C1.39742 1.4547 1.44484 1.40464 1.50535 1.34996C1.8057 1.08073 2.20402 0.932574 2.62668 0.932574H17.3732C17.7995 0.932574 18.198 1.08097 18.495 1.35048C18.5463 1.39697 18.5953 1.44857 18.638 1.50014L18.7508 1.63607L10.8797 7.7884C10.637 7.97919 10.3246 8.08418 9.99988 8.08418C9.67836 8.08418 9.36621 7.97943 9.12066 7.78864L1.25742 1.63782L1.36027 1.50347ZM1.04512 11.7264C1.04086 11.7011 1.03988 11.673 1.03988 11.6444V2.54818L7.14809 7.32705L1.10152 12.0551L1.04512 11.7264ZM18.1601 12.8799C17.9237 13.0022 17.6514 13.0671 17.3732 13.0671H2.62672C2.34832 13.0671 2.07617 13.0022 1.83992 12.8799L1.59273 12.7514L7.84023 7.86855L8.52492 8.40266C8.93563 8.72244 9.45937 8.89873 9.99996 8.89873C10.5425 8.89873 11.0671 8.72244 11.4776 8.40266L12.162 7.86831L18.4073 12.7517L18.1601 12.8799ZM18.9598 11.6444C18.9598 11.6725 18.9593 11.7003 18.9553 11.7251L18.9012 12.0569L12.852 7.32961L18.9598 2.5505V11.6444Z" fill="black"/>
</svg>
