<svg width="60" height="42" viewBox="0 0 60 42" fill="none" xmlns="http://www.w3.org/2000/svg">
<path d="M54.375 41.625H5.625C2.52375 41.625 0 39.1012 0 36V6C0 2.89875 2.52375 0.375 5.625 0.375H54.375C57.4762 0.375 60 2.89875 60 6V36C60 39.1012 57.4762 41.625 54.375 41.625ZM5.625 37.875H54.375C55.4081 37.875 56.25 37.035 56.25 36V6.59437L31.2206 28.0481C30.8681 28.35 30.435 28.5 30 28.5C29.565 28.5 29.1319 28.35 28.7794 28.0481L3.75 6.59437V36C3.75 37.035 4.59188 37.875 5.625 37.875ZM53.37 4.125H6.63L30 24.1556L53.37 4.125Z" fill="black"/>
</svg>
