<svg width="25" height="20" viewBox="0 0 25 20" fill="none" xmlns="http://www.w3.org/2000/svg">
<g clip-path="url(#clip0_334_1466)">
<path d="M2.0835 13.3335C2.0835 10.9765 2.0835 9.798 2.99879 9.06575C3.91408 8.3335 5.38721 8.3335 8.3335 8.3335H16.6668C19.6131 8.3335 21.0862 8.3335 22.0015 9.06575C22.9168 9.798 22.9168 10.9765 22.9168 13.3335C22.9168 15.6905 22.9168 16.869 22.0015 17.6012C21.0862 18.3335 19.6131 18.3335 16.6668 18.3335H8.3335C5.38721 18.3335 3.91408 18.3335 2.99879 17.6012C2.0835 16.869 2.0835 15.6905 2.0835 13.3335Z" stroke="#1C274C" stroke-width="3.75"/>
<path d="M6.25 8.33317V6.6665C6.25 3.90508 9.04822 1.6665 12.5 1.6665C15.9518 1.6665 18.75 3.90508 18.75 6.6665V8.33317" stroke="#1C274C" stroke-width="3.75" stroke-linecap="round"/>
</g>
<defs>
<clipPath id="clip0_334_1466">
<rect width="25" height="20" fill="white"/>
</clipPath>
</defs>
</svg>
