<svg width="60" height="60" viewBox="0 0 60 60" fill="none" xmlns="http://www.w3.org/2000/svg">
<path d="M55.8619 9.82764H4.13778C2.13813 9.82764 0.51709 11.4487 0.51709 13.4483V46.5518C0.51709 48.5514 2.13813 50.1725 4.13778 50.1725H55.8619C57.8616 50.1725 59.4826 48.5514 59.4826 46.5518V13.4483C59.4826 11.4487 57.8616 9.82764 55.8619 9.82764Z" fill="white" stroke="#F3F3F3" stroke-width="1.03448"/>
<path d="M35.4932 39.2861H24.7852V20.1851H35.4932V39.2861Z" fill="#FF5F00"/>
<path d="M25.4712 29.7343C25.4712 25.8595 27.299 22.408 30.1453 20.1837C28.0639 18.5572 25.437 17.5864 22.582 17.5864C15.8234 17.5864 10.3447 23.0251 10.3447 29.7343C10.3447 36.4433 15.8234 41.882 22.582 41.882C25.437 41.882 28.0639 40.9112 30.1453 39.2847C27.299 37.0605 25.4712 33.6089 25.4712 29.7343Z" fill="#EB001B"/>
<path d="M49.9351 29.7343C49.9351 36.4433 44.4564 41.882 37.6978 41.882C34.8429 41.882 32.216 40.9112 30.1338 39.2847C32.9809 37.0605 34.8086 33.6089 34.8086 29.7343C34.8086 25.8595 32.9809 22.408 30.1338 20.1837C32.216 18.5572 34.8429 17.5864 37.6978 17.5864C44.4564 17.5864 49.9351 23.0251 49.9351 29.7343Z" fill="#F79E1B"/>
</svg>
