<svg width="53" height="17" viewBox="0 0 53 17" fill="none" xmlns="http://www.w3.org/2000/svg">
<path d="M18.6401 15.9809L21.3089 0.319824H25.5776L22.9069 15.9809H18.6401Z" fill="#0E4595"/>
<path d="M38.3288 0.65776C37.4832 0.34048 36.158 0 34.5031 0C30.2851 0 27.314 2.12408 27.2887 5.16832C27.2649 7.41864 29.4098 8.674 31.029 9.42312C32.6906 10.1909 33.2491 10.6804 33.2411 11.3658C33.2305 12.4156 31.9143 12.895 30.6872 12.895C28.9788 12.895 28.0711 12.6577 26.6692 12.0731L26.1191 11.8242L25.52 15.33C26.5171 15.7673 28.3607 16.1459 30.2751 16.1656C34.7623 16.1656 37.6752 14.0658 37.7083 10.8149C37.7243 9.03328 36.5871 7.6776 34.1243 6.55984C32.6323 5.83536 31.7185 5.35192 31.7282 4.61832C31.7282 3.96736 32.5016 3.27128 34.1729 3.27128C35.5687 3.2496 36.5799 3.554 37.3678 3.87128L37.7503 4.052L38.3288 0.65776Z" fill="#0E4595"/>
<path d="M49.3136 0.319824H46.0152C44.9934 0.319824 44.2287 0.598704 43.7799 1.61854L37.4404 15.9707H41.9229C41.9229 15.9707 42.6557 14.041 42.8215 13.6173C43.3113 13.6173 47.6659 13.624 48.2883 13.624C48.416 14.1723 48.8077 15.9707 48.8077 15.9707H52.7687L49.3136 0.319824ZM44.0803 10.4325C44.4334 9.53014 45.7811 6.05454 45.7811 6.05454C45.7559 6.09622 46.1315 5.14782 46.347 4.55982L46.6355 5.91006C46.6355 5.91006 47.4529 9.64838 47.6237 10.4322H44.0803V10.4325Z" fill="#0E4595"/>
<path d="M0.0545313 0.319824L0 0.645605C1.68744 1.05409 3.19456 1.6453 4.51406 2.38076L8.30172 15.9558L12.8181 15.9508L19.5384 0.319824H15.0164L10.8373 10.9995L10.3922 8.82904C10.3713 8.76198 10.3487 8.69481 10.3255 8.62748L8.87266 1.64201C8.61434 0.650332 7.86493 0.354384 6.93781 0.319824H0.0545313Z" fill="#0E4595"/>
</svg>
